<?xml version="1.0" encoding="utf-8"?>

<!DOCTYPE svg PUBLIC "-//W3C//DTD SVG 1.1//EN" "http://www.w3.org/Graphics/SVG/1.1/DTD/svg11.dtd">
<!-- Uploaded to: SVG Repo, www.svgrepo.com, Generator: SVG Repo Mixer Tools -->
<svg height="800px" width="800px" version="1.1" id="_x32_" xmlns="http://www.w3.org/2000/svg" xmlns:xlink="http://www.w3.org/1999/xlink" 
	 viewBox="0 0 512 512"  xml:space="preserve">
<style type="text/css">
	.st0{fill:#000000;}
</style>
<g>
	<path class="st0" d="M494.734,51.383c-10.625-10.644-25.444-17.275-41.681-17.266h-26.936h-13.663H99.546H85.892H58.948
		c-16.229-0.009-31.056,6.622-41.681,17.266C6.623,62.008-0.008,76.836,0,93.064v30.874c0,37.997,23.133,72.164,58.411,86.274
		l0.527,0.208l61.258,18.767c3.047,3.948,6.258,7.813,9.842,11.507c22.751,23.396,44.865,39.107,60.102,51.86
		c7.622,6.349,13.427,11.944,16.828,16.702c1.72,2.374,2.856,4.494,3.575,6.45c0.71,1.965,1.046,3.765,1.046,5.867
		c0,29.655,0,12.518,0,42.173c0,6.131-0.865,11.398-2.302,15.746c-2.192,6.541-5.522,10.97-9.615,13.991
		c-4.13,2.984-9.278,4.766-16.156,4.794c-24.524,0-24.761,0-24.779,0h-13.663v79.605h221.85v-79.605h-13.663c0,0-0.246,0-24.77,0
		c-4.585,0-8.414-0.828-11.662-2.228c-4.849-2.138-8.605-5.486-11.562-10.689c-2.911-5.194-4.858-12.399-4.858-21.614
		c0-29.655,0-12.518,0-42.173c0.009-2.102,0.346-3.902,1.047-5.867c1.228-3.393,3.875-7.432,8.386-12.153
		c6.705-7.096,17.293-15.337,29.92-25.389c12.626-10.088,27.262-22.105,42.199-37.47c3.584-3.694,6.805-7.559,9.843-11.507
		l61.266-18.767l0.519-0.208c35.286-14.11,58.41-48.277,58.41-86.274V93.064C512.009,76.836,505.386,62.008,494.734,51.383z
		 M68.198,184.695c-24.706-10.052-40.88-34.058-40.88-60.757V93.064c0.008-8.769,3.52-16.601,9.26-22.36
		c5.776-5.749,13.59-9.26,22.369-9.27h26.899c-0.028,6.359-0.065,12.726-0.065,19.058c0.019,29.291,0.683,58.183,6.45,85.51
		c2.074,9.787,4.848,19.367,8.487,28.654L68.198,184.695z M393.052,160.343c-2.529,11.936-6.086,23.024-11.053,33.221
		c-4.967,10.208-11.316,19.54-19.621,28.091c-20.859,21.477-41.454,36.132-58.028,49.941c-8.278,6.941-15.646,13.682-21.45,21.65
		c-2.884,3.985-5.35,8.315-7.096,13.081c-1.746,4.749-2.719,9.934-2.711,15.246c0,29.655,0,12.518,0,42.173
		c0,8.696,1.22,16.865,3.694,24.334c3.684,11.189,10.334,20.831,19.44,27.463c9.078,6.659,20.368,10.088,32.266,10.052
		c4.466,0,8.114,0,11.116,0v24.971H172.392v-24.971c3.002,0,6.65,0,11.125,0c7.942,0.009,15.583-1.483,22.505-4.475
		c10.407-4.476,18.985-12.417,24.543-22.424c5.595-10.006,8.342-21.923,8.342-34.949c0-29.655,0-12.518,0-42.173
		c0.01-5.312-0.964-10.497-2.71-15.246c-3.075-8.369-8.25-15.292-14.246-21.604c-9.061-9.47-20.268-17.975-32.666-27.9
		c-12.39-9.897-25.98-21.086-39.662-35.168c-8.305-8.551-14.654-17.884-19.621-28.091c-7.441-15.282-11.735-32.63-14.1-51.705
		c-2.374-19.049-2.801-39.744-2.801-61.367c0-6.277,0.027-12.644,0.063-19.058h285.682c0.018,6.414,0.055,12.78,0.055,19.058
		C398.918,109.329,398.109,136.501,393.052,160.343z M484.692,123.938c0,26.699-16.184,50.705-40.89,60.757l-32.539,9.96
		c6.186-15.755,9.825-32.375,11.945-49.422c2.61-21.032,3.001-42.773,3.011-64.742c0-6.331-0.036-12.699-0.064-19.058h26.899
		c8.778,0.01,16.601,3.52,22.368,9.27c5.74,5.758,9.261,13.581,9.27,22.36V123.938z"/>
</g>
</svg>